<?xml version="1.0" encoding="UTF-8" standalone="no" ?>
<!DOCTYPE svg PUBLIC "-//W3C//DTD SVG 1.1//EN" "http://www.w3.org/Graphics/SVG/1.1/DTD/svg11.dtd">
<svg xmlns="http://www.w3.org/2000/svg" xmlns:xlink="http://www.w3.org/1999/xlink" version="1.1" width="500" height="500" viewBox="0 0 500 500" xml:space="preserve">
<desc>Created with Fabric.js 3.6.3</desc>
<defs>
</defs>
<g transform="matrix(0.84 0 0 0.8399999999999999 250.00000000000006 251.52633811712224)"  >
<g style=""   >
		<g transform="matrix(1 0 0 1 0.5 0.5)" clip-path="url(#CLIPPATH_631)"  >
<clipPath id="CLIPPATH_631" >
	<rect transform="matrix(1 0 0 1 0 0)" x="-213.735" y="-70.855" rx="0" ry="0" width="427.47" height="141.71" />
</clipPath>
<polygon style="stroke: none; stroke-width: 1; stroke-dasharray: none; stroke-linecap: butt; stroke-dashoffset: 0; stroke-linejoin: miter; stroke-miterlimit: 4; fill: rgb(0,0,0); fill-rule: nonzero; opacity: 1;"  points="213.73499999999999,70.85499999999999 -213.735,70.85499999999999 -213.735,-70.85500000000002 -55.745000000000005,-70.85500000000002 -55.745000000000005,-65.85500000000002 -208.735,-65.85500000000002 -208.735,65.85499999999999 208.73499999999999,65.85499999999999 208.73499999999999,-65.85500000000002 55.734999999999985,-65.85500000000002 55.734999999999985,-70.85500000000002 213.73499999999999,-70.85500000000002 " />
</g>
</g>
</g>
<g transform="matrix(1 0 0 1 251.94 249.0365273196117)" style=""  ><path fill="#000000" opacity="1" d="M-137.62 12.59L-137.62 12.59Q-140.01 12.59-142.00 11.67Q-143.99 10.74-145.42 9.02Q-146.85 7.30-147.64 4.85Q-148.43 2.40-148.43-0.65L-148.43-0.65Q-148.43-3.70-147.64-6.11Q-146.85-8.53-145.42-10.21Q-143.99-11.89-142.00-12.78Q-140.01-13.66-137.62-13.66L-137.62-13.66Q-135.23-13.66-133.24-12.76Q-131.25-11.85-129.80-10.17Q-128.35-8.49-127.56-6.08Q-126.77-3.66-126.77-0.65L-126.77-0.65Q-126.77 2.40-127.56 4.85Q-128.35 7.30-129.80 9.02Q-131.25 10.74-133.24 11.67Q-135.23 12.59-137.62 12.59ZM-137.62 9.77L-137.62 9.77Q-135.92 9.77-134.55 9.04Q-133.18 8.31-132.19 6.94Q-131.21 5.57-130.67 3.65Q-130.13 1.74-130.13-0.65L-130.13-0.65Q-130.13-3.01-130.67-4.90Q-131.21-6.79-132.19-8.10Q-133.18-9.42-134.55-10.13Q-135.92-10.85-137.62-10.85L-137.62-10.85Q-139.32-10.85-140.69-10.13Q-142.06-9.42-143.05-8.10Q-144.03-6.79-144.57-4.90Q-145.11-3.01-145.11-0.65L-145.11-0.65Q-145.11 1.74-144.57 3.65Q-144.03 5.57-143.05 6.94Q-142.06 8.31-140.69 9.04Q-139.32 9.77-137.62 9.77Z"/><path fill="#000000" opacity="1" d="M-112.41 12.13L-115.61 12.13L-115.61-13.20L-108.39-13.20Q-106.27-13.20-104.51-12.81Q-102.75-12.43-101.52-11.56Q-100.28-10.69-99.59-9.26Q-98.89-7.83-98.89-5.75L-98.89-5.75Q-98.89-3.74-99.57-2.27Q-100.24-0.81-101.48 0.16Q-102.71 1.13-104.43 1.61Q-106.15 2.09-108.23 2.09L-108.23 2.09L-112.41 2.09L-112.41 12.13ZM-112.41-10.61L-112.41-0.54L-108.62-0.54Q-105.30-0.54-103.70-1.79Q-102.10-3.05-102.10-5.75L-102.10-5.75Q-102.10-8.49-103.78-9.55Q-105.45-10.61-108.78-10.61L-108.78-10.61L-112.41-10.61Z"/><path fill="#000000" opacity="1" d="M-73.06 12.13L-88.04 12.13L-88.04-13.20L-73.44-13.20L-73.44-10.50L-84.83-10.50L-84.83-2.54L-75.22-2.54L-75.22 0.20L-84.83 0.20L-84.83 9.39L-73.06 9.39L-73.06 12.13Z"/><path fill="#000000" opacity="1" d="M-58.77 12.13L-61.98 12.13L-61.98-13.20L-58.77-13.20L-58.77-2.58L-46.99-2.58L-46.99-13.20L-43.75-13.20L-43.75 12.13L-46.99 12.13L-46.99 0.20L-58.77 0.20L-58.77 12.13Z"/><path fill="#000000" opacity="1" d="M-24.10 3.67L-32.98 3.67L-32.98 1.24L-24.10 1.24L-24.10 3.67Z"/><path fill="#000000" opacity="1" d="M-11.70-0.65L-11.70-0.65Q-11.70 2.63-9.69 4.50Q-7.68 6.38-3.90 6.49L-3.90 6.49L-3.90-7.60Q-7.68-7.49-9.69-5.71Q-11.70-3.93-11.70-0.65ZM6.76-0.65L6.76-0.65Q6.76-3.93 4.75-5.71Q2.74-7.49-1.04-7.60L-1.04-7.60L-1.04 6.49Q2.74 6.38 4.75 4.50Q6.76 2.63 6.76-0.65ZM-1.04 12.59L-3.90 12.59L-3.90 8.96Q-9.07 8.77-11.93 6.30Q-14.79 3.83-14.79-0.65L-14.79-0.65Q-14.79-5.09-11.93-7.51Q-9.07-9.92-3.90-10.07L-3.90-10.07L-3.90-13.66L-1.04-13.66L-1.04-10.07Q4.13-9.92 6.99-7.51Q9.85-5.09 9.85-0.65L9.85-0.65Q9.85 3.83 6.99 6.30Q4.13 8.77-1.04 8.96L-1.04 8.96L-1.04 12.59Z"/><path fill="#000000" opacity="1" d="M22.47 12.59L22.47 12.59Q21.62 12.59 21.06 12.50Q20.50 12.40 19.96 12.21L19.96 12.21L20.62 9.31Q20.93 9.43 21.31 9.50Q21.70 9.58 22.24 9.58L22.24 9.58Q23.48 9.58 24.23 9.10Q24.98 8.62 25.52 7.54L25.52 7.54L26.06 6.18L17.41-13.20L20.85-13.20L25.56-1.93L27.49 3.06L27.65 3.06L29.42-1.93L33.79-13.20L37.07-13.20L28.77 7.54Q27.80 9.89 26.35 11.24Q24.91 12.59 22.47 12.59Z"/><path fill="#000000" opacity="1" d="M49.46 12.13L46.26 12.13L46.26-13.20L53.48-13.20Q55.60-13.20 57.36-12.81Q59.12-12.43 60.35-11.56Q61.59-10.69 62.28-9.26Q62.98-7.83 62.98-5.75L62.98-5.75Q62.98-3.74 62.30-2.27Q61.63-0.81 60.39 0.16Q59.16 1.13 57.44 1.61Q55.72 2.09 53.63 2.09L53.63 2.09L49.46 2.09L49.46 12.13ZM49.46-10.61L49.46-0.54L53.25-0.54Q56.57-0.54 58.17-1.79Q59.77-3.05 59.77-5.75L59.77-5.75Q59.77-8.49 58.09-9.55Q56.42-10.61 53.09-10.61L53.09-10.61L49.46-10.61Z"/><path fill="#000000" opacity="1" d="M77.03 12.13L73.83 12.13L73.83-13.20L88.43-13.20L88.43-10.50L77.03-10.50L77.03 12.13Z"/><path fill="#000000" opacity="1" d="M106.73 12.59L106.73 12.59Q104.33 12.59 102.35 11.67Q100.36 10.74 98.93 9.02Q97.50 7.30 96.71 4.85Q95.92 2.40 95.92-0.65L95.92-0.65Q95.92-3.70 96.71-6.11Q97.50-8.53 98.93-10.21Q100.36-11.89 102.35-12.78Q104.33-13.66 106.73-13.66L106.73-13.66Q109.12-13.66 111.11-12.76Q113.10-11.85 114.55-10.17Q116.00-8.49 116.79-6.08Q117.58-3.66 117.58-0.65L117.58-0.65Q117.58 2.40 116.79 4.85Q116.00 7.30 114.55 9.02Q113.10 10.74 111.11 11.67Q109.12 12.59 106.73 12.59ZM106.73 9.77L106.73 9.77Q108.43 9.77 109.80 9.04Q111.17 8.31 112.15 6.94Q113.14 5.57 113.68 3.65Q114.22 1.74 114.22-0.65L114.22-0.65Q114.22-3.01 113.68-4.90Q113.14-6.79 112.15-8.10Q111.17-9.42 109.80-10.13Q108.43-10.85 106.73-10.85L106.73-10.85Q105.03-10.85 103.66-10.13Q102.29-9.42 101.30-8.10Q100.32-6.79 99.78-4.90Q99.24-3.01 99.24-0.65L99.24-0.65Q99.24 1.74 99.78 3.65Q100.32 5.57 101.30 6.94Q102.29 8.31 103.66 9.04Q105.03 9.77 106.73 9.77Z"/><path fill="#000000" opacity="1" d="M131.94 12.13L128.74 12.13L128.74-13.20L131.94-13.20L131.94-2.58L143.72-2.58L143.72-13.20L146.96-13.20L146.96 12.13L143.72 12.13L143.72 0.20L131.94 0.20L131.94 12.13Z"/></g><g transform="matrix(1.3467243468186136 0 0 1.4508882986790392 250 158.45168929023717)"  >
<path style="stroke: none; stroke-width: 0; stroke-dasharray: none; stroke-linecap: butt; stroke-dashoffset: 0; stroke-linejoin: miter; stroke-miterlimit: 4; fill: rgb(0,0,0); fill-rule: nonzero; opacity: 1;"  transform=" translate(-50.042999999999985, -49.976499999999994)" d="m 90.625 49.793 l -5.543 -2.793 l -2.457 -11.625 l -1.168 -4.625 c -0.75 -2.875 -3.375 -4.918 -6.332 -4.918 h -16.168 v -2.543 c 0 -3.707 -3 -6.707 -6.707 -6.707 h -40.125 c -3.707 0 -6.707 3 -6.707 6.707 v 46.418 c 0 3.707 3 6.707 6.707 6.707 h 5.125 c 0.95703 4 4.5 6.957 8.793 6.957 s 7.832 -2.957 8.793 -6.957 h 28.082 c 0.95703 4 4.5 6.957 8.793 6.957 c 4.293 0 7.832 -2.957 8.793 -6.957 h 7.457 c 3.707 0 6.707 -3 6.707 -6.707 v -13.5 c 0 -2.793 -1.543 -5.25 -3.957 -6.418 z m -0.20703 8.75 v 4.457 l -4.168 -0.082031 l 0.082031 -4.375 z m -9.793 -12.25 l -12.125 -0.20703 l 0.29297 -8.125 h 10 z m -68.5 -25.543 h 40.125 c 1.418 0 2.543 1.168 2.543 2.543 v 35.043 l -45.25 -0.003907 v -35 c 0 -1.418 1.168 -2.543 2.543 -2.543 z m -2.543 48.957 v -7.207 h 45.25 v 9.75 h -20 c -0.95703 -4 -4.5 -6.957 -8.793 -6.957 c -4.293 0 -7.832 3 -8.793 6.957 h -5.125 c -1.418 0 -2.543 -1.168 -2.543 -2.543 z m 16.5 9.5 c -2.707 0 -4.875 -2.168 -4.875 -4.875 s 2.207 -4.875 4.875 -4.875 s 4.875 2.207 4.875 4.875 s -2.207 4.875 -4.875 4.875 z m 45.625 0 c -2.707 0 -4.875 -2.168 -4.875 -4.875 s 2.207 -4.875 4.875 -4.875 s 4.875 2.207 4.875 4.875 s -2.168 4.875 -4.875 4.875 z m 16.25 -6.957 h -7.457 c -0.95703 -4 -4.5 -6.957 -8.793 -6.957 s -7.832 3 -8.793 6.957 h -3.918 l 0.003906 -42.207 h 16.168 c 1.082 0 2.043 0.75 2.293 1.75 l 0.45703 2 h -9.043 c -2.457 0 -4.457 1.957 -4.457 4.418 v 7.875 c 0 2.418 2 4.418 4.457 4.418 h 13.918 l 6.043 3.043 c 0.375 0.16797 0.66797 0.5 0.91797 0.83203 h -3.332 c -2.332 0 -4.25 1.918 -4.25 4.25 v 4.293 c 0 2.332 1.918 4.25 4.25 4.25 h 4.043 v 2.543 c 0 1.418 -1.168 2.543 -2.543 2.543 z" stroke-linecap="round" />
</g>
<g transform="matrix(1 0 0 1 251.72 331.49313811712227)" style=""  ><path fill="#000000" opacity="1" d="M-126.49-1.09C-126.62-1.01-126.68-0.92-126.68-0.77C-126.68-0.65-126.62-0.56-126.49-0.48L-125.67 0.00L-125.67 5.44C-125.67 6.55-125.61 6.60-124.50 6.60C-123.99 6.60-123.03 6.74-122.82 6.09C-122.80 6.01-122.78 5.90-122.71 5.76L-122.61 5.46C-121.54 2.12-121.01 0.53-121.05 0.63L-120.80-0.06C-120.68-0.31-120.40-0.25-120.30 0.00C-120.24 0.17-120.21 0.46-120.21 0.91L-120.21 5.46C-120.21 6.60-120.19 6.60-119.02 6.60L-118.28 6.60C-117.63 6.51-117.72 5.99-117.72 5.32L-117.72 0.00L-116.88-0.48C-116.77-0.56-116.71-0.65-116.71-0.77C-116.71-0.92-116.77-1.01-116.88-1.09L-117.72-1.57L-117.72-6.97C-117.72-7.62-117.67-8.12-118.16-8.15L-120.15-8.15C-120.40-8.15-120.59-8.00-120.68-7.70C-120.72-7.56-120.80-7.28-120.93-6.91C-121.03-6.57-121.12-6.30-121.16-6.11C-121.50-5.00-122.27-2.41-122.48-1.66C-122.52-1.53-122.57-1.43-122.61-1.34C-122.71-1.09-123.03-1.13-123.07-1.38C-123.20-1.78-123.18-1.85-123.18-2.54C-123.20-5.67-123.20-7.18-123.20-7.10C-123.20-8.12-123.24-8.17-124.27-8.17C-124.62-8.17-124.96-8.17-125.28-8.12C-125.72-8.10-125.67-7.58-125.67-7.10L-125.67-1.57Z"/><path fill="#000000" opacity="1" d="M-106.42-0.86C-106.42-1.26-105.49-0.96-105.49-2.66C-105.49-3.23-105.49-3.53-105.49-3.82L-105.49-5.04C-105.49-6.32-106.31-7.52-107.68-8.02C-107.95-8.12-108.18-8.17-108.39-8.17C-109.00-8.19-109.44-8.17-109.71-8.17C-109.90-8.15-110.11-8.12-110.28-8.06C-110.79-7.87-111.31-7.62-112.00-6.80C-112.44-6.28-112.61-5.37-112.61-4.81C-112.61-4.58-112.59-4.37-112.59-4.18C-112.57-3.67-112.42-3.55-111.92-3.55C-111.69-3.55-111.48-3.53-111.27-3.53C-111.06-3.53-110.83-3.55-110.62-3.55C-110.03-3.59-110.13-3.67-110.11-4.37C-110.09-5.16-109.55-5.71-108.96-5.71C-108.66-5.71-108.41-5.58-108.20-5.35C-107.78-4.89-107.82-4.41-107.82-3.88L-107.82-2.75C-107.85-2.56-107.91-2.41-107.99-2.31C-108.20-2.12-108.24-2.10-108.64-2.10C-109.11-2.10-109.44-2.10-109.63-2.08C-110.28-2.08-110.30-1.82-110.30-0.88C-110.30-0.63-110.28-0.35-110.26-0.10C-110.26 0.19-110.09 0.34-109.80 0.36C-109.48 0.38-109.00 0.38-108.85 0.38C-108.12 0.38-107.68 0.46-107.61 1.20L-107.61 2.21C-107.61 2.50-107.61 2.77-107.66 3.03C-107.72 3.57-108.06 4.18-108.96 4.18C-109.80 4.18-110.32 3.59-110.32 2.84L-110.32 2.48C-110.32 2.02-110.47 1.87-110.91 1.87C-111.12 1.85-111.35 1.85-111.60 1.85C-111.84 1.85-112.07 1.85-112.32 1.87C-112.61 1.89-112.78 2.06-112.78 2.35C-112.78 2.82-112.76 3.51-112.68 3.93C-112.34 5.67-110.85 6.81-109.04 6.81C-107.74 6.81-106.86 6.70-105.98 5.50C-105.66 5.11-105.26 4.16-105.28 3.47L-105.28 1.51C-105.28-0.75-106.42-0.46-106.42-0.86Z"/><path fill="#000000" opacity="1" d="M-93.92-6.13C-93.90-6.63-93.90-7.12-93.92-7.62C-93.94-8.19-94.43-8.10-94.89-8.10L-99.19-8.10C-100.14-8.10-100.18-8.06-100.18-7.12L-100.18 5.59C-100.18 6.62-100.16 6.66-99.13 6.66C-98.71 6.66-98.42 6.66-98.21 6.64C-97.62 6.60-97.70 6.13-97.70 5.34L-97.70-4.03C-97.70-4.45-97.68-4.72-97.68-4.87C-97.60-5.77-97.35-5.58-95.54-5.63C-94.17-5.63-93.94-5.52-93.92-6.13Z"/><path fill="#000000" opacity="1" d="M-81.51 2.63L-81.53-4.32C-81.53-5.44-81.81-6.63-82.69-7.45C-83.57-8.29-84.62-8.52-86.28-8.27C-86.55-8.23-86.78-8.12-87.03-7.94C-88.25-7.05-88.84-6.00-88.80-4.76L-88.80 3.11C-88.80 3.78-88.69 4.33-88.44 4.79C-87.10 7.31-83.61 7.48-81.95 4.81C-81.85 4.62-81.76 4.45-81.74 4.27C-81.57 3.40-81.51 2.86-81.51 2.63ZM-84.28 3.49C-84.66 4.33-85.88 4.31-86.22 3.45C-86.30 3.28-86.32 2.96-86.32 2.54L-86.32-4.30C-86.32-4.64-86.32-4.85-86.30-4.97C-86.15-6.05-84.60-6.17-84.26-5.14C-84.20-4.93-84.16-4.70-84.16-4.41L-84.16 2.69C-84.16 3.03-84.20 3.30-84.28 3.49Z"/><path fill="#000000" opacity="1" d="M-69.27-7.12C-69.27-8.10-69.31-8.10-70.30-8.10L-75.34-8.10C-75.82-8.10-76.07-8.15-76.24-8.00C-76.30-7.94-76.37-7.81-76.37-7.64C-76.39-7.16-76.39-6.68-76.37-6.23C-76.35-5.81-76.20-5.71-75.78-5.69C-75.69-5.67-75.53-5.67-75.30-5.67C-74.88-5.67-74.46-5.67-74.25-5.44C-74.06-5.23-74.06-4.95-74.06-4.24L-74.06 5.44C-74.06 6.07-74.14 6.58-73.59 6.60C-73.09 6.62-72.57 6.62-72.02 6.60C-71.52 6.55-71.58 6.07-71.58 5.32L-71.58-4.03C-71.58-4.85-71.60-5.21-71.35-5.44C-71.10-5.69-70.65-5.67-70.23-5.67C-69.86-5.67-69.56-5.67-69.39-5.81C-69.33-5.90-69.29-6.02-69.29-6.21C-69.27-6.38-69.27-6.70-69.27-7.12Z"/><path fill="#000000" opacity="1" d="M-56.86 2.63L-56.88-4.32C-56.88-5.44-57.15-6.63-58.03-7.45C-58.92-8.29-59.97-8.52-61.62-8.27C-61.90-8.23-62.13-8.12-62.38-7.94C-63.60-7.05-64.19-6.00-64.14-4.76L-64.14 3.11C-64.14 3.78-64.04 4.33-63.79 4.79C-62.44 7.31-58.96 7.48-57.30 4.81C-57.19 4.62-57.11 4.45-57.09 4.27C-56.92 3.40-56.86 2.86-56.86 2.63ZM-59.63 3.49C-60.01 4.33-61.23 4.31-61.56 3.45C-61.65 3.28-61.67 2.96-61.67 2.54L-61.67-4.30C-61.67-4.64-61.67-4.85-61.65-4.97C-61.50-6.05-59.94-6.17-59.61-5.14C-59.55-4.93-59.50-4.70-59.50-4.41L-59.50 2.69C-59.50 3.03-59.55 3.30-59.63 3.49Z"/><path fill="#000000" opacity="1" d="M-43.88 1.98C-43.86 0.93-44.15 0.02-44.78-0.69C-45.12-1.09-45.12-1.26-44.82-1.66C-43.54-3.36-43.98-6.19-45.35-7.37C-46.02-7.94-46.82-8.21-47.81-8.19C-48.14-8.17-48.58-8.17-49.13-8.17C-50.73-8.19-51.19-8.23-51.40-8.02C-51.48-7.94-51.52-7.62-51.52-7.12L-51.52 5.25C-51.52 5.95-51.52 6.26-51.38 6.43C-51.27 6.53-51.10 6.60-50.87 6.60C-46.88 6.64-45.94 6.83-44.72 5.38C-44.15 4.71-43.88 3.97-43.90 3.13C-43.90 2.65-43.90 2.25-43.88 1.98ZM-48.84-5.02C-48.75-5.54-48.50-5.71-47.95-5.67C-47.39-5.63-47.03-5.31-46.86-4.79L-46.74-4.16C-46.74-3.69-46.84-3.25-47.05-2.87C-47.18-2.66-47.37-2.52-47.64-2.43C-49.11-1.95-48.98-3.99-48.84-5.02ZM-46.88 3.43C-47.13 3.89-47.58 4.10-48.23 4.08C-48.96 4.03-48.86 3.72-48.86 2.17C-48.86 0.74-48.94 0.46-48.37 0.17C-47.79-0.10-46.97 0.38-46.74 1.03C-46.42 1.87-46.48 2.67-46.88 3.43Z"/><path fill="#000000" opacity="1" d="M-35.84 4.41C-35.16-0.46-35.04-1.11-34.89-1.51C-34.81-1.66-34.58-1.74-34.45-1.51C-34.39-1.38-34.35-1.28-34.32-1.19C-34.32-1.13-33.51 4.35-33.48 4.56C-33.44 4.73-33.42 4.98-33.38 5.29C-33.30 5.97-33.27 6.28-33.09 6.45C-33.00 6.53-32.88 6.58-32.67 6.60C-32.50 6.60-31.01 6.66-30.82 6.47C-30.65 6.32-30.63 5.95-30.73 5.34C-30.75 5.17-32.25-3.63-32.83-7.12C-32.90-7.45-32.98-7.83-33.13-7.98C-33.21-8.04-33.38-8.08-33.59-8.10L-35.50-8.10C-36.17-8.10-36.34-7.98-36.47-7.28C-36.74-5.56-38.27 3.38-38.65 5.50C-38.73 6.11-38.88 6.55-38.29 6.58C-37.85 6.60-37.31 6.60-36.66 6.58C-36.36 6.58-36.19 6.43-36.13 6.11C-35.96 5.15-35.86 4.58-35.84 4.41Z"/><path fill="#000000" opacity="1" d="M-18.89 4.56C-18.95 4.08-19.37 4.14-20.00 4.12L-22.06 4.12C-22.75 4.10-22.94 3.89-22.98 3.22C-23.01 2.56-23.01 2.00-22.96 1.49C-22.92 0.59-22.71 0.49-21.91 0.49C-21.30 0.49-20.82 0.49-20.51 0.46C-20.21 0.44-20.04 0.30-20.04 0.00C-20.00-0.44-20.00-0.88-20.02-1.32C-20.04-1.82-20.17-1.97-20.67-1.97C-20.82-1.99-21.07-1.99-21.41-1.99C-22.06-1.99-22.52-1.97-22.77-2.20C-22.88-2.33-22.96-2.54-22.96-2.81C-23.01-3.48-23.01-4.18-22.98-4.89C-22.94-5.54-22.75-5.75-22.06-5.77L-19.98-5.77C-19.37-5.77-18.93-5.73-18.89-6.23C-18.85-6.72-18.83-7.77-19.02-7.96C-19.12-8.04-19.39-8.10-19.88-8.10L-24.41-8.10C-25.44-8.10-25.46-8.06-25.46-7.01L-25.46 5.21C-25.46 5.99-25.48 6.26-25.29 6.43C-25.11 6.60-24.75 6.60-24.45 6.60L-19.90 6.60C-19.46 6.60-18.95 6.64-18.91 6.13C-18.85 5.63-18.85 5.11-18.89 4.56Z"/><path fill="#000000" opacity="1" d="M-6.27 5.44L-6.27-7.10C-6.27-7.64-6.18-8.12-6.75-8.17C-7.15-8.21-8.41-8.23-8.60-8.04C-8.70-7.94-8.75-7.64-8.75-7.12C-8.77-6.70-8.77-6.07-8.77-5.25L-8.77-3.38C-8.77-2.77-8.73-2.12-9.36-2.06C-9.90-1.97-10.64-1.97-10.89-2.20C-11.12-2.43-11.08-2.85-11.08-3.53L-11.08-7.01C-11.08-7.64-10.99-8.12-11.56-8.17C-11.96-8.21-13.22-8.23-13.43-8.04C-13.53-7.94-13.58-7.64-13.58-7.12L-13.58 5.25C-13.58 6.01-13.58 6.28-13.43 6.45C-13.26 6.62-12.90 6.60-12.19 6.60C-11.16 6.60-11.08 6.51-11.08 5.53L-11.08 1.70C-11.08 1.12-11.14 0.57-10.53 0.53C-9.92 0.49-9.02 0.40-8.85 0.99C-8.79 1.20-8.77 1.49-8.77 1.85L-8.75 5.50C-8.75 6.07-8.81 6.53-8.28 6.58C-8.10 6.60-7.82 6.60-7.47 6.60C-6.33 6.60-6.27 6.55-6.27 5.44Z"/><path fill="#000000" opacity="1" d="M-1.06-7.10L-1.06 5.44C-1.06 6.55-1.00 6.60 0.12 6.60C0.62 6.60 1.59 6.74 1.80 6.09C1.82 6.01 1.84 5.90 1.90 5.76L2.01 5.46C3.08 2.12 3.60 0.53 3.56 0.63L3.81-0.06C3.94-0.31 4.21-0.25 4.32 0.00C4.38 0.17 4.40 0.46 4.40 0.91L4.40 5.46C4.40 6.60 4.42 6.60 5.60 6.60L6.33 6.60C6.98 6.51 6.90 5.99 6.90 5.32L6.90-6.97C6.90-7.62 6.94-8.12 6.46-8.15L4.46-8.15C4.21-8.15 4.02-8.00 3.94-7.70C3.90-7.56 3.81-7.28 3.69-6.91C3.58-6.57 3.50-6.30 3.45-6.11C3.12-5.00 2.34-2.41 2.13-1.66C2.09-1.53 2.05-1.43 2.01-1.34C1.90-1.09 1.59-1.13 1.54-1.38C1.42-1.78 1.44-1.85 1.44-2.54C1.42-5.67 1.42-7.18 1.42-7.10C1.42-8.12 1.38-8.17 0.35-8.17C-0.01-8.17-0.35-8.17-0.66-8.12C-1.10-8.10-1.06-7.58-1.06-7.10Z"/><path fill="#000000" opacity="1" d="M18.64 4.56C18.57 4.08 18.15 4.14 17.52 4.12L15.47 4.12C14.77 4.10 14.58 3.89 14.54 3.22C14.52 2.56 14.52 2.00 14.56 1.49C14.61 0.59 14.82 0.49 15.61 0.49C16.22 0.49 16.71 0.49 17.02 0.46C17.31 0.44 17.48 0.30 17.48 0.00C17.52-0.44 17.52-0.88 17.50-1.32C17.48-1.82 17.36-1.97 16.85-1.97C16.71-1.99 16.45-1.99 16.12-1.99C15.47-1.99 15.00-1.97 14.75-2.20C14.65-2.33 14.56-2.54 14.56-2.81C14.52-3.48 14.52-4.18 14.54-4.89C14.58-5.54 14.77-5.75 15.47-5.77L17.55-5.77C18.15-5.77 18.60-5.73 18.64-6.23C18.68-6.72 18.70-7.77 18.51-7.96C18.41-8.04 18.13-8.10 17.65-8.10L13.11-8.10C12.09-8.10 12.06-8.06 12.06-7.01L12.06 5.21C12.06 5.99 12.04 6.26 12.23 6.43C12.42 6.60 12.78 6.60 13.07 6.60L17.63 6.60C18.07 6.60 18.57 6.64 18.62 6.13C18.68 5.63 18.68 5.11 18.64 4.56Z"/><path fill="#000000" opacity="1" d=""/><path fill="#000000" opacity="1" d="M32.37-7.10L32.37 5.44C32.37 6.55 32.43 6.60 33.55 6.60C34.05 6.60 35.02 6.74 35.23 6.09C35.25 6.01 35.27 5.90 35.33 5.76L35.44 5.46C36.51 2.12 37.03 0.53 36.99 0.63L37.24-0.06C37.37-0.31 37.64-0.25 37.75 0.00C37.81 0.17 37.83 0.46 37.83 0.91L37.83 5.46C37.83 6.60 37.85 6.60 39.03 6.60L39.76 6.60C40.41 6.51 40.33 5.99 40.33 5.32L40.33-6.97C40.33-7.62 40.37-8.12 39.89-8.15L37.89-8.15C37.64-8.15 37.45-8.00 37.37-7.70C37.33-7.56 37.24-7.28 37.12-6.91C37.01-6.57 36.93-6.30 36.89-6.11C36.55-5.00 35.77-2.41 35.56-1.66C35.52-1.53 35.48-1.43 35.44-1.34C35.33-1.09 35.02-1.13 34.98-1.38C34.85-1.78 34.87-1.85 34.87-2.54C34.85-5.67 34.85-7.18 34.85-7.10C34.85-8.12 34.81-8.17 33.78-8.17C33.42-8.17 33.09-8.17 32.77-8.12C32.33-8.10 32.37-7.58 32.37-7.10Z"/><path fill="#000000" opacity="1" d=""/><path fill="#000000" opacity="1" d="M61.25-5.06C61.04-7.60 58.87-8.15 57.61-8.15C57.45-8.15 57.07-8.15 56.42-8.15L55.20-8.15C54.15-8.15 54.13-8.12 54.13-7.10L54.13 5.59C54.13 6.09 54.09 6.55 54.59 6.60C55.24 6.64 56.27 6.66 56.46 6.47C56.54 6.39 56.61 6.13 56.61 5.76L56.61 2.46C56.61 1.79 56.50 1.28 57.21 1.20C57.32 1.18 57.63 1.16 58.12 1.16C58.50 1.14 58.79 1.09 59.00 1.01C60.32 0.51 61.20-0.67 61.27-2.08L61.27-3.48C61.27-4.47 61.27-5.00 61.25-5.06ZM58.89-2.45C58.77-1.61 58.01-1.09 57.21-1.22C56.84-1.28 56.65-1.49 56.63-1.82L56.63-3.48L56.61-3.48C56.61-5.23 56.37-5.71 57.49-5.63C59.04-5.50 59.08-3.88 58.89-2.45Z"/><path fill="#000000" opacity="1" d="M73.01 4.56C72.94 4.08 72.52 4.14 71.89 4.12L69.84 4.12C69.14 4.10 68.95 3.89 68.91 3.22C68.89 2.56 68.89 2.00 68.93 1.49C68.97 0.59 69.18 0.49 69.98 0.49C70.59 0.49 71.07 0.49 71.39 0.46C71.68 0.44 71.85 0.30 71.85 0.00C71.89-0.44 71.89-0.88 71.87-1.32C71.85-1.82 71.73-1.97 71.22-1.97C71.07-1.99 70.82-1.99 70.49-1.99C69.84-1.99 69.37-1.97 69.12-2.20C69.02-2.33 68.93-2.54 68.93-2.81C68.89-3.48 68.89-4.18 68.91-4.89C68.95-5.54 69.14-5.75 69.84-5.77L71.91-5.77C72.52-5.77 72.96-5.73 73.01-6.23C73.05-6.72 73.07-7.77 72.88-7.96C72.78-8.04 72.50-8.10 72.02-8.10L67.48-8.10C66.45-8.10 66.43-8.06 66.43-7.01L66.43 5.21C66.43 5.99 66.41 6.26 66.60 6.43C66.79 6.60 67.15 6.60 67.44 6.60L72.00 6.60C72.44 6.60 72.94 6.64 72.99 6.13C73.05 5.63 73.05 5.11 73.01 4.56Z"/><path fill="#000000" opacity="1" d="M88.90 5.40L88.90-6.93C88.90-7.54 88.99-8.04 88.42-8.06C87.77-8.08 86.97-8.08 86.03-8.06C85.40-8.06 85.46-7.62 85.29-6.68C85.21-6.30 85.17-6.00 85.12-5.77C84.98-5.10 84.81-4.18 84.60-3.06L84.09-0.33C84.09-0.25 84.07-0.21 84.05-0.17C83.91 0.17 83.61 0.13 83.53-0.12C83.44-0.38 83.38-0.56 83.36-0.67L82.27-6.19L81.97-7.64C81.91-7.91 81.74-8.06 81.51-8.06L78.95-8.06C78.42-8.04 78.49-7.52 78.49-6.91L78.49 5.42C78.49 6.11 78.42 6.55 78.93 6.62C79.45 6.66 79.98 6.66 80.48 6.62C81.01 6.53 80.97 6.03 80.97 5.44L80.97 1.87C80.97 1.51 81.01 1.26 81.07 1.14C81.09 1.05 81.30 0.97 81.39 1.14C81.49 1.37 81.55 1.54 81.60 1.66C81.72 2.21 81.91 2.96 82.12 3.93C82.20 4.22 82.52 5.55 82.65 6.09C82.73 6.49 82.86 6.60 83.28 6.62C83.86 6.66 84.51 6.64 84.68 6.49C84.77 6.41 84.85 6.24 84.91 6.01C85.00 5.63 85.12 5.11 85.27 4.39L85.71 2.21C85.77 1.89 85.86 1.68 85.94 1.58C85.98 1.54 86.03 1.51 86.09 1.51C86.15 1.51 86.19 1.54 86.22 1.60C86.34 1.91 86.43 2.31 86.43 2.82L86.43 5.55C86.43 6.07 86.38 6.55 86.80 6.60C87.37 6.66 87.92 6.66 88.46 6.60C88.95 6.53 88.90 5.99 88.90 5.40Z"/><path fill="#000000" opacity="1" d="M101.40 2.63L101.38-4.32C101.38-5.44 101.10-6.63 100.22-7.45C99.34-8.29 98.29-8.52 96.63-8.27C96.36-8.23 96.13-8.12 95.88-7.94C94.66-7.05 94.07-6.00 94.11-4.76L94.11 3.11C94.11 3.78 94.22 4.33 94.47 4.79C95.81 7.31 99.30 7.48 100.96 4.81C101.06 4.62 101.15 4.45 101.17 4.27C101.34 3.40 101.40 2.86 101.40 2.63ZM98.63 3.49C98.25 4.33 97.03 4.31 96.69 3.45C96.61 3.28 96.59 2.96 96.59 2.54L96.59-4.30C96.59-4.64 96.59-4.85 96.61-4.97C96.76-6.05 98.31-6.17 98.65-5.14C98.71-4.93 98.75-4.70 98.75-4.41L98.75 2.69C98.75 3.03 98.71 3.30 98.63 3.49Z"/><path fill="#000000" opacity="1" d="M113.91 5.44L113.91-7.10C113.91-7.64 114.00-8.12 113.43-8.17C113.03-8.21 111.77-8.23 111.58-8.04C111.48-7.94 111.44-7.64 111.44-7.12C111.42-6.70 111.42-6.07 111.42-5.25L111.42-3.38C111.42-2.77 111.46-2.12 110.83-2.06C110.28-1.97 109.55-1.97 109.29-2.20C109.06-2.43 109.11-2.85 109.11-3.53L109.11-7.01C109.11-7.64 109.19-8.12 108.62-8.17C108.22-8.21 106.96-8.23 106.75-8.04C106.65-7.94 106.61-7.64 106.61-7.12L106.61 5.25C106.61 6.01 106.61 6.28 106.75 6.45C106.92 6.62 107.28 6.60 107.99 6.60C109.02 6.60 109.11 6.51 109.11 5.53L109.11 1.70C109.11 1.12 109.04 0.57 109.65 0.53C110.26 0.49 111.16 0.40 111.33 0.99C111.39 1.20 111.42 1.49 111.42 1.85L111.44 5.50C111.44 6.07 111.37 6.53 111.90 6.58C112.09 6.60 112.36 6.60 112.72 6.60C113.85 6.60 113.91 6.55 113.91 5.44Z"/><path fill="#000000" opacity="1" d="M126.16-7.12C126.16-8.10 126.12-8.10 125.13-8.10L120.09-8.10C119.61-8.10 119.35-8.15 119.19-8.00C119.12-7.94 119.06-7.81 119.06-7.64C119.04-7.16 119.04-6.68 119.06-6.23C119.08-5.81 119.23-5.71 119.65-5.69C119.73-5.67 119.90-5.67 120.13-5.67C120.55-5.67 120.97-5.67 121.18-5.44C121.37-5.23 121.37-4.95 121.37-4.24L121.37 5.44C121.37 6.07 121.29 6.58 121.83 6.60C122.34 6.62 122.86 6.62 123.41 6.60C123.91 6.55 123.85 6.07 123.85 5.32L123.85-4.03C123.85-4.85 123.83-5.21 124.08-5.44C124.33-5.69 124.77-5.67 125.19-5.67C125.57-5.67 125.86-5.67 126.03-5.81C126.09-5.90 126.14-6.02 126.14-6.21C126.16-6.38 126.16-6.70 126.16-7.12Z"/></g></svg>